<?xml version="1.0" encoding="utf-8"?>
<!-- Generator: Adobe Illustrator 19.2.0, SVG Export Plug-In . SVG Version: 6.00 Build 0)  -->
<svg version="1.1" id="Слой_1" xmlns="http://www.w3.org/2000/svg" xmlns:xlink="http://www.w3.org/1999/xlink" x="0px" y="0px"
	 viewBox="0 0 300 100" style="enable-background:new 0 0 300 100;" xml:space="preserve">
<style type="text/css">
	.st0{fill:none;}
	.st1{fill:#2855A8;}
	.st2{fill:#FFFFFF;}
</style>
<g>
	<path class="st0" d="M70.3,46.3c-3.9,0-6.8,2.9-6.8,7.4s3,7.4,6.8,7.4c3.9,0,6.8-2.9,6.8-7.4S74.2,46.3,70.3,46.3z"/>
</g>
<g>
	<path class="st0" d="M146.1,46.3c-3.9,0-6.8,2.9-6.8,7.4s3,7.4,6.8,7.4c3.9,0,6.8-2.9,6.8-7.4C152.8,49.2,149.9,46.3,146.1,46.3z"
		/>
</g>
<g>
	<polygon class="st1" points="36.8,44.7 20.8,44.7 20.8,29.7 10.8,29.7 10.8,69.7 20.8,69.7 20.8,53.7 36.8,53.7 36.8,69.7 
		45.8,69.7 45.8,29.7 36.8,29.7 	"/>
</g>
<g>
	<path class="st1" d="M76.3,41.2c-1.9-2.6-4.7-4.4-8.8-4.4c-8,0-14.2,6.8-14.2,16.8c0,9.9,6,16.8,14.2,16.8c4.1,0,6.9-1.7,8.8-4.2
		v3.6h10.6l0.1-32H76.3V41.2z M70.3,61c-3.8,0-6.8-2.9-6.8-7.4c0-4.4,2.9-7.4,6.8-7.4s6.8,2.9,6.8,7.4C77.1,58.2,74.2,61,70.3,61z"
		/>
</g>
<g>
	<path class="st1" d="M112.1,36.9c-4,0-7.3,1.5-9.3,4.4v-3.6h-10v32h10v-17c0-4.4,1.5-6.4,5.4-6.4c4,0,4.6,2,4.6,5.5v17.9h11v-20
		C123.8,41.8,119.4,36.9,112.1,36.9z"/>
</g>
<g>
	<path class="st1" d="M152.7,25.6v15.6c-1.9-2.6-5-4.4-9.1-4.4c-8,0-14.4,6.8-14.4,16.8c0,9.9,6.2,16.8,14.4,16.8
		c4.1,0,6.2-1.7,9-4.2v3.6h9.4V25.6H152.7z M146.1,61c-3.8,0-6.8-2.9-6.8-7.4c0-4.4,2.9-7.4,6.8-7.4s6.8,2.9,6.8,7.4
		C152.8,58.2,149.9,61,146.1,61z"/>
</g>
<path class="st1" d="M276.9,85.1h-85.7c-6.6,0-12-5.4-12-12V34.3c0-6.6,5.4-12,12-12h85.7c6.6,0,12,5.4,12,12v38.8
	C288.9,79.7,283.5,85.1,276.9,85.1z"/>
<g>
	<path class="st2" d="M228.7,53.7c0,11.2-8.7,19.7-20.1,19.7h-14.7V34h14.7C220,34,228.7,42.5,228.7,53.7z M219.1,53.7
		c0-6.3-4.3-10.6-10.6-10.6h-5.1v21.1h5.1C214.8,64.2,219.1,59.9,219.1,53.7z"/>
	<path class="st2" d="M274.3,53.7c0,11.6-8.9,20.4-20.6,20.4c-11.6,0-20.6-8.8-20.6-20.4s8.9-20.4,20.6-20.4
		C265.4,33.2,274.3,42.1,274.3,53.7z M242.8,53.7c0,6.6,4.6,11.3,10.9,11.3c6.3,0,10.9-4.7,10.9-11.3s-4.6-11.3-10.9-11.3
		C247.4,42.4,242.8,47.1,242.8,53.7z"/>
</g>
</svg>
