<svg height="512pt" viewBox="0 -2 512.00011 512" width="512pt" xmlns="http://www.w3.org/2000/svg"><path d="m497.542969 47.210938-210.695313 210.695312-32.753906-32.75 210.695312-210.695312c9.042969-9.042969 23.703126-9.039063 32.746094.003906 2.789063 2.789062 4.71875 6.105468 5.78125 9.632812 2.40625 7.917969.480469 16.859375-5.773437 23.113282zm0 0" fill="#7c4242"/><path d="m497.542969 47.210938-210.695313 210.695312-17.339844-17.339844 210.695313-210.695312c6.253906-6.253906 15.191406-8.179688 23.113281-5.773438 2.40625 7.917969.480469 16.859375-5.773437 23.113282zm0 0" fill="#936a60"/><path d="m269.847656 264.027344-26.695312-26.691406c-35.71875-35.71875-93.632813-35.71875-129.351563 0l-106.105469 106.109374 24.703126 24.703126 61.8125-34.808594-34.8125 61.8125 14.863281 14.859375 41.867187-23.574219-23.578125 41.867188 71.1875 71.183593 106.109375-106.109375c35.71875-35.71875 35.71875-93.628906 0-129.351562zm0 0" fill="#ff9216"/><path d="m263.382812 257.5625-20.226562-20.226562c-35.722656-35.71875-93.632812-35.71875-129.355469 0l-106.105469 106.109374 20.226563 20.226563 106.109375-106.109375c35.71875-35.71875 93.632812-35.71875 129.351562 0zm0 0" fill="#e8590c"/><path d="m308.039062 274.28125c-7.714843 7.714844-20.222656 7.714844-27.9375 0l-47.199218-47.199219c-3.859375-3.859375-5.789063-8.910156-5.789063-13.96875.007813-5.054687 1.933594-10.113281 5.789063-13.96875 7.710937-7.710937 20.222656-7.710937 27.933594 0l47.203124 47.203125c3.859376 3.859375 5.785157 8.90625 5.785157 13.96875-.003907 5.050782-1.933594 10.113282-5.785157 13.964844zm0 0" fill="#ed2867"/><path d="m308.039062 274.28125c-7.714843 7.714844-20.222656 7.714844-27.9375 0l-22.957031-22.957031c-3.855469-3.851563-5.785156-8.90625-5.785156-13.96875 0-5.058594 1.929687-10.113281 5.785156-13.96875 7.710938-7.710938 20.222657-7.710938 27.933594 0l22.960937 22.960937c3.859376 3.859375 5.785157 8.90625 5.785157 13.96875-.003907 5.050782-1.933594 10.113282-5.785157 13.964844zm0 0" fill="#ff694f"/><path d="m502.976562 9.019531c-12.027343-12.027343-31.601562-12.027343-43.628906 0l-110.421875 110.421875c-3.003906 3.003906-3.003906 7.878906 0 10.882813 3.003907 3.003906 7.875 3 10.878907 0l110.421874-110.421875c6.03125-6.03125 15.84375-6.027344 21.871094 0 6.03125 6.03125 6.03125 15.839844 0 21.871094l-188.878906 188.878906-21.871094-21.871094 59.480469-59.480469c3.003906-3.003906 3.003906-7.875 0-10.878906s-7.875-3.003906-10.882813 0l-59.476562 59.476563-4.191406-4.191407c-10.703125-10.699219-28.113282-10.699219-38.816406 0-4.855469 4.855469-7.667969 11.210938-8.003907 18.023438-36.535156-16.535157-81.105469-9.824219-111.09375 20.164062l-106.109375 106.109375c-3.003906 3.003906-3.003906 7.875 0 10.878906l24.703125 24.707032c2.441407 2.4375 6.207031 2.957031 9.214844 1.261718l37.824219-21.300781-21.296875 37.824219c-1.695313 3.007812-1.179688 6.777344 1.261719 9.21875l14.863281 14.859375c2.441406 2.441406 6.207031 2.957031 9.214843 1.265625l17.878907-10.066406-10.066407 17.875c-1.695312 3.007812-1.179687 6.777344 1.261719 9.214844l71.1875 71.1875c1.5 1.503906 3.46875 2.253906 5.4375 2.253906s3.9375-.75 5.441407-2.253906l49.75-49.75c3.003906-3.003907 3.003906-7.875 0-10.878907-3.003907-3.007812-7.875-3.003906-10.878907 0l-44.308593 44.308594-61.617188-61.617187 20.710938-36.777344c1.691406-3.007813 1.175781-6.773438-1.265626-9.214844-2.441406-2.441406-6.207031-2.957031-9.214843-1.265625l-36.777344 20.710937-6.605469-6.605468 31.941406-56.722656c1.695313-3.007813 1.179688-6.773438-1.261718-9.214844s-6.207032-2.957032-9.214844-1.265625l-56.726562 31.945312-15.132813-15.136719 100.667969-100.667968c21.183594-21.183594 50.984375-28.613282 78.226562-22.316406-.824218.125-1.640625.234374-2.472656.382812-22.269531 3.96875-44.65625 16.273438-63.035156 34.652344-3.007813 3.003906-3.007813 7.878906 0 10.882812 3.003906 3.003906 7.875 3.003906 10.878906 0 32.660156-32.664062 77.03125-41.4375 98.90625-19.566406l9.3125 9.3125 9.316406 9.3125c21.867188 21.878906 13.089844 66.246094-19.570312 98.90625-3.003906 3.003906-3.003906 7.875 0 10.878906 1.503906 1.503906 3.472656 2.253906 5.441406 2.253906s3.9375-.75 5.4375-2.253906c18.378906-18.378906 30.6875-40.765625 34.65625-63.039062.15625-.871094.269531-1.730469.398438-2.597656 1.441406 6.199218 2.203124 12.597656 2.203124 19.117187 0 22.378906-8.714843 43.414063-24.539062 59.238281l-34.8125 34.816406c-3.007812 3.003907-3.007812 7.875 0 10.878907 3.003906 3.003906 7.875 3.003906 10.878906 0l34.816406-34.816407c18.730469-18.726562 29.042969-43.628906 29.042969-70.117187 0-14.378906-3.046875-28.285156-8.820312-40.996094 6.539062-.34375 12.980469-3.003906 17.964843-7.984375 5.183594-5.183594 8.039063-12.078125 8.039063-19.40625 0-7.039062-2.636719-13.664062-7.429687-18.769531l188.890624-188.894531c12.03125-12.027344 12.03125-31.601563 0-43.632813zm-200.382812 259.820313c-4.699219 4.703125-12.351562 4.703125-17.050781 0l-47.199219-47.199219c-2.277344-2.277344-3.535156-5.304687-3.535156-8.523437 0-3.222657 1.257812-6.25 3.535156-8.527344 2.347656-2.351563 5.4375-3.527344 8.523438-3.527344 3.089843 0 6.179687 1.175781 8.527343 3.527344l42.382813 42.382812c.003906 0 .003906.003906.007812.003906l4.808594 4.8125h.003906c2.277344 2.277344 3.527344 5.304688 3.527344 8.527344 0 3.21875-1.253906 6.246094-3.53125 8.523438zm0 0"/></svg>