<svg height="512pt" viewBox="-68 0 512 512.00025" width="512pt" xmlns="http://www.w3.org/2000/svg"><path d="m62.59375 275.011719 19.09375 31.535156 35.890625 8.414063-24.089844 27.90625 3.089844 36.734374-33.984375-14.289062-33.980469 14.289062 3.085938-36.734374-24.089844-27.90625 35.890625-8.414063zm0 0" fill="#ffcf47"/><path d="m283.082031 323.195312h36.515625v181.195313h-36.515625zm0 0" fill="#7f4a26"/><path d="m319.597656 400.796875v103.59375h-19.78125v-93.945313c0-5.328124 4.320313-9.648437 9.652344-9.648437zm0 0" fill="#935d35"/><path d="m225.015625 13.726562-101.007813 87.347657c-17.761718 15.363281-6.898437 44.53125 16.585938 44.53125h202.011719c23.484375 0 34.347656-29.167969 16.585937-44.53125l-101.007812-87.347657c-9.523438-8.234374-23.644532-8.234374-33.167969 0zm0 0" fill="#ffcf47"/><path d="m241.601562 7.550781c-2.816406 0-5.628906 2.058594-7.890624 6.175781l-48.070313 87.347657c-8.449219 15.367187-3.285156 44.527343 7.890625 44.527343h-52.9375c-23.484375 0-34.347656-29.160156-16.585938-44.527343l101.011719-87.347657c4.757813-4.117187 10.671875-6.175781 16.582031-6.175781zm0 0" fill="#f7bc31"/><path d="m148.03125 145.605469h187.136719v226.277343h-187.136719zm0 0" fill="#ef5361"/><path d="m148.03125 145.605469h55.929688v226.277343h-55.929688zm0 0" fill="#dc4250"/><path d="m335.167969 191.351562v71.5l-131.207031 44.371094-55.929688 18.914063v-71.5l55.929688-18.917969zm0 0" fill="#dae6ed"/><path d="m203.960938 235.71875v71.503906l-55.929688 18.914063v-71.5zm0 0" fill="#beccd3"/><path d="m75.179688 310.488281c1.058593 1.75 2.78125 3 4.773437 3.464844l23.65625 5.546875-15.878906 18.394531c-1.335938 1.550781-1.992188 3.570313-1.820313 5.609375l3.085938 36.734375c.332031 3.972657 3.660156 6.972657 7.570312 6.972657.214844 0 .429688-.011719.648438-.027344 4.1875-.351563 7.292968-4.03125 6.941406-8.21875l-2.820312-33.546875 22.003906-25.484375c1.738281-2.015625 2.296875-4.792969 1.476562-7.324219-.824218-2.53125-2.910156-4.449219-5.5-5.054687l-32.777344-7.683594-17.4375-28.800782c-1.378906-2.273437-3.84375-3.664062-6.507812-3.664062-2.660156 0-5.128906 1.390625-6.507812 3.664062l-17.4375 28.800782-32.777344 7.683594c-2.589844.609374-4.675782 2.527343-5.5 5.054687-.820313 2.535156-.261719 5.308594 1.480468 7.324219l22 25.484375-2.820312 33.546875c-.351562 4.1875 2.757812 7.867187 6.941406 8.21875 4.191406.359375 7.867188-2.757813 8.21875-6.941406l3.089844-36.738282c.167969-2.039062-.488281-4.058594-1.824219-5.605468l-15.878906-18.394532 23.660156-5.546875c1.988281-.46875 3.710938-1.71875 4.769531-3.46875l12.585938-20.785156zm0 0"/><path d="m364.167969 95.320312-101.007813-87.347656c-12.289062-10.628906-30.828125-10.632812-43.121094 0l-30.101562 26.03125c-3.175781 2.746094-3.527344 7.550782-.777344 10.730469 2.75 3.175781 7.554688 3.527344 10.730469.777344l30.101563-26.03125c6.617187-5.722657 16.597656-5.722657 23.214843 0l101.007813 87.351562c6.875 5.945313 7.101562 14.03125 5.019531 19.613281-2.078125 5.585938-7.539063 11.554688-16.628906 11.554688h-202.011719c-9.089844 0-14.550781-5.96875-16.632812-11.554688-2.078126-5.582031-1.851563-13.667968 5.023437-19.613281l50.453125-43.632812c3.179688-2.75 3.527344-7.554688.777344-10.730469-2.746094-3.179688-7.550782-3.527344-10.730469-.777344l-50.453125 43.632813c-10.519531 9.097656-14.183594 23.398437-9.328125 36.433593 4.835937 12.980469 16.878906 21.382813 30.71875 21.449219v218.675781c0 4.203126 3.40625 7.609376 7.605469 7.609376h26.261718v20.917968c0 14.125-5.496093 27.402344-15.480468 37.386719s-23.261719 15.480469-37.386719 15.480469c-29.148437 0-52.867187-23.714844-52.867187-52.867188v-60.476562c0-4.203125-3.40625-7.609375-7.609376-7.609375-4.199218 0-7.605468 3.40625-7.605468 7.609375v60.476562c0 37.539063 30.542968 68.082032 68.082031 68.082032 18.191406 0 35.289063-7.078126 48.144531-19.9375 12.859375-12.859376 19.941406-29.957032 19.941406-48.144532v-20.917968h85.964844v124.898437c0 4.203125 3.402344 7.609375 7.605469 7.609375h36.515625c4.203125 0 7.609375-3.40625 7.609375-7.609375v-124.898437h7.964844c4.203125 0 7.609375-3.40625 7.609375-7.609376v-31.542968c0-4.203125-3.40625-7.609375-7.609375-7.609375-4.199219 0-7.605469 3.40625-7.605469 7.609375v23.9375h-171.925781v-32.675782l171.925781-58.144531v36.449219c0 4.199219 3.40625 7.605469 7.605469 7.605469 4.203125 0 7.609375-3.40625 7.609375-7.605469v-156.699219c13.835937-.066406 25.882812-8.46875 30.714844-21.449219 4.855468-13.035156 1.195312-27.335937-9.324219-36.4375zm-52.179688 284.171876v117.292968h-21.300781v-117.292968zm15.574219-226.277344v32.675781l-171.925781 58.140625v-90.816406zm-171.925781 162.324218v-55.445312l171.925781-58.140625v55.445313zm0 0"/></svg>