<svg height="475pt" viewBox="0 0 475.72755 475" width="475pt" xmlns="http://www.w3.org/2000/svg"><path d="m143.878906 144.191406-22.640625 22.558594-56.558593-79.121094zm0 0" fill="#808285"/><path d="m194.757812 93.230469-22.640624 22.640625-56.558594-79.203125zm0 0" fill="#808285"/><g fill="#d1d3d4"><path d="m223.476562 66.828125c-2.292968.753906-4.378906 2.042969-6.078124 3.761719l-16.558594 16.640625-53.28125-74.5625zm0 0"/><path d="m166.117188 121.871094-21.277344 21.359375-53.28125-74.5625zm0 0"/><path d="m114.757812 173.230469-22.640624 22.640625-56.558594-79.203125zm0 0"/></g><path d="m240.039062 93.230469-147.121093 147.121093c-6.25 6.25-16.386719 6.25-22.640625 0-6.25-6.253906-6.25-16.390624 0-22.640624l17.042968-16.960938 4.796876-4.878906 29.121093-29.121094 22.640625-22.558594.960938-.960937 21.277344-21.359375 28.640624-28.640625 5.679688-5.601563.402344-.398437 16.558594-16.640625c1.699218-1.71875 3.785156-3.007813 6.078124-3.761719 5.785157-2.054687 12.234376-.589844 16.5625 3.761719 3.003907 3 4.691407 7.074218 4.691407 11.320312s-1.6875 8.320313-4.691407 11.320313zm0 0" fill="#a7a9ac"/><path d="m87.320312 200.75-17.042968 16.960938-5.597656 5.679687-56.5625-79.199219zm0 0" fill="#808285"/><path d="m305.320312 267.871094c-.242187-1.042969-.480468-2.082032-.800781-3.121094-.304687-.984375-.679687-1.949219-1.121093-2.878906-3.648438-8.6875-10.933594-15.332032-19.921876-18.160156-1.039062-.320313-2.078124-.5625-3.117187-.800782-2.109375-.421875-4.25-.636718-6.402344-.640625-1.390625-.007812-2.785156.097657-4.160156.320313-1.371094.1875-2.734375.457031-4.078125.800781l2.558594 2.558594c6.253906 6.253906 6.253906 16.390625 0 22.640625-6.25 6.25-16.386719 6.25-22.640625 0l-2.558594-2.558594c-.34375 1.34375-.609375 2.703125-.800781 4.078125-.222656 1.375-.328125 2.765625-.320313 4.160156.003907 2.148438.21875 4.292969.640625 6.398438.242188 1.042969.480469 2.082031.800782 3.121093 2.828124 8.988282 9.472656 16.273438 18.160156 19.921876.929687.441406 1.894531.816406 2.878906 1.117187 1.039062.320313 2.082031.5625 3.121094.800781 4.222656.855469 8.574218.855469 12.800781 0 1.039063-.238281 2.078125-.480468 3.117187-.800781.988282-.300781 1.949219-.675781 2.882813-1.117187 7.699219-3.21875 13.820313-9.34375 17.039063-17.042969.441406-.929688.816406-1.890625 1.121093-2.878907.320313-1.039062.558594-2.078124.800781-3.121093.851563-4.222657.851563-8.574219 0-12.796875zm0 0c-.242187-1.042969-.480468-2.082032-.800781-3.121094-.304687-.984375-.679687-1.949219-1.121093-2.878906-3.648438-8.6875-10.933594-15.332032-19.921876-18.160156-1.039062-.320313-2.078124-.5625-3.117187-.800782-2.109375-.421875-4.25-.636718-6.402344-.640625-1.390625-.007812-2.785156.097657-4.160156.320313-1.371094.1875-2.734375.457031-4.078125.800781l2.558594 2.558594c6.253906 6.253906 6.253906 16.390625 0 22.640625-6.25 6.25-16.386719 6.25-22.640625 0l-2.558594-2.558594c-.34375 1.34375-.609375 2.703125-.800781 4.078125-.222656 1.375-.328125 2.765625-.320313 4.160156.003907 2.148438.21875 4.292969.640625 6.398438.242188 1.042969.480469 2.082031.800782 3.121093 2.828124 8.988282 9.472656 16.273438 18.160156 19.921876.929687.441406 1.894531.816406 2.878906 1.117187 1.039062.320313 2.082031.5625 3.121094.800781 4.222656.855469 8.574218.855469 12.800781 0 1.039063-.238281 2.078125-.480468 3.117187-.800781.988282-.300781 1.949219-.675781 2.882813-1.117187 7.699219-3.21875 13.820313-9.34375 17.039063-17.042969.441406-.929688.816406-1.890625 1.121093-2.878907.320313-1.039062.558594-2.078124.800781-3.121093.851563-4.222657.851563-8.574219 0-12.796875zm0 0" fill="#7dcced"/><path d="m458.277344 440.667969-17.917969 17.921875c-11.121094 11.128906-28.671875 12.550781-41.441406 3.359375l-306-221.597657 147.121093-147.121093 221.597657 306c9.191406 12.769531 7.769531 30.316406-3.359375 41.4375zm0 0" fill="#7dcced"/><path d="m305.957031 274.269531c0 2.148438-.214843 4.292969-.636719 6.398438-.242187 1.042969-.480468 2.082031-.800781 3.121093-.304687.988282-.679687 1.949219-1.121093 2.878907-3.21875 7.699219-9.339844 13.824219-17.039063 17.042969-.933594.441406-1.894531.816406-2.882813 1.117187-1.039062.320313-2.078124.5625-3.117187.800781-4.226563.855469-8.578125.855469-12.800781 0-1.039063-.238281-2.082032-.480468-3.121094-.800781-.984375-.300781-1.949219-.675781-2.878906-1.117187-8.6875-3.648438-15.332032-10.933594-18.160156-19.921876-.320313-1.039062-.558594-2.078124-.800782-3.121093-.421875-2.105469-.636718-4.25-.640625-6.398438-.007812-1.394531.097657-2.785156.320313-4.160156.191406-1.375.457031-2.734375.800781-4.078125l2.558594 2.558594c6.253906 6.25 16.390625 6.25 22.640625 0 6.253906-6.25 6.253906-16.386719 0-22.640625l-2.558594-2.558594c1.34375-.34375 2.707031-.613281 4.078125-.800781 1.375-.222656 2.769531-.328125 4.160156-.320313 2.152344.003907 4.292969.21875 6.402344.640625 1.039063.238282 2.078125.480469 3.117187.800782 8.988282 2.828124 16.273438 9.472656 19.921876 18.160156.441406.929687.816406 1.894531 1.121093 2.878906.320313 1.039062.558594 2.078125.800781 3.121094.421876 2.105468.636719 4.25.636719 6.398437zm0 0" fill="#ad5e11"/><path d="m268.277344 268.589844c-3 3.003906-7.074219 4.691406-11.320313 4.691406-4.246093 0-8.316406-1.6875-11.320312-4.691406l-45.199219-45.199219c-6.25-6.253906-6.25-16.390625 0-22.640625 6.253906-6.253906 16.390625-6.253906 22.640625 0l45.199219 45.199219c3.003906 3 4.695312 7.074219 4.695312 11.320312 0 4.246094-1.691406 8.320313-4.695312 11.320313zm0 0" fill="#81460d"/><path d="m268.359375 234.71875-39.648437-39.648438c-9.496094-9.074218-24.449219-9.074218-33.945313 0-9.367187 9.371094-9.367187 24.5625 0 33.933594l39.640625 39.664063c-2.429688 17.042969 6.316406 33.730469 21.714844 41.429687 15.398437 7.695313 33.996094 4.675782 46.167968-7.496094 12.175782-12.171874 15.191407-30.769531 7.496094-46.167968-7.695312-15.398438-24.382812-24.144532-41.425781-21.714844zm-62.273437-28.328125c3.125-3.125 8.1875-3.125 11.3125 0l45.257812 45.246094c1.5 1.5 2.34375 3.539062 2.34375 5.660156 0 2.125-.84375 4.160156-2.34375 5.660156-3.164062 3.027344-8.148438 3.027344-11.3125 0l-45.257812-45.253906c-3.125-3.125-3.128907-8.1875-.007813-11.3125zm84.839843 84.855469c-6.0625 6.101562-14.933593 8.480468-23.238281 6.234375-8.304688-2.246094-14.765625-8.773438-16.929688-17.097657 8.269532 2.386719 17.183594.039063 23.199219-6.113281 6.046875-6.078125 8.375-14.933593 6.097657-23.199219 8.304687 2.1875 14.804687 8.648438 17.050781 16.933594 2.242187 8.289063-.113281 17.148438-6.179688 23.226563zm0 0"/><path d="m468.078125 394.558594-218.273437-301.433594c4.140624-7.636719 3.785156-16.921875-.925782-24.214844-4.710937-7.296875-13.027344-11.445312-21.6875-10.816406l-78.695312-56.207031c-3.191406-2.3125-7.585938-1.9570315-10.363282.832031-2.78125 2.789062-3.113281 7.1875-.789062 10.367188l42.816406 59.9375-59.945312-42.847657c-3.183594-2.265625-7.535156-1.898437-10.292969.863281-2.761719 2.761719-3.125 7.113282-.859375 10.292969l42.816406 59.9375-59.953125-42.816406c-3.183593-2.261719-7.53125-1.894531-10.292969.867187-2.757812 2.761719-3.121093 7.113282-.859374 10.292969l28.671874 40.144531-40.144531-28.671874c-3.179687-2.273438-7.539062-1.914063-10.304687.851562s-3.128906 7.125-.855469 10.308594l42.816406 59.9375-59.933593-42.816406c-3.183594-2.273438-7.542969-1.914063-10.308594.851562s-3.125 7.125-.851563 10.308594l42.824219 59.949218-59.953125-42.832031c-3.179687-2.332031-7.585937-2-10.382813.78125-2.792968 2.785157-3.140624 7.191407-.816406 10.378907l56.207032 78.6875c-.46875 6.609374 1.835937 13.117187 6.359374 17.957031 4.519532 4.839843 10.855469 7.578125 17.480469 7.554687 3.914063-.035156 7.757813-1.027344 11.199219-2.886718l301.464844 218.28125c15.898437 11.59375 37.878906 9.84375 51.746094-4.121094l17.972656-18.007813c13.957031-13.855469 15.703125-35.824219 4.113281-51.710937zm-257.367187-328.570313-9.273438 9.273438-23.199219-32.457031zm-28.28125 28.28125-9.269532 9.273438-23.203125-32.472657zm-28.289063 28.289063-9.269531 9.3125-23.199219-32.457032zm-22.582031 22.625-9.273438 9.269531-23.199218-32.449219zm-28.328125 28.285156-9.273438 9.265625-23.199219-32.464844zm-28.289063 28.289062-4.632812 4.640626-4.628906 4.632812-23.203126-32.449219zm1.023438 32.921876c-3.117188-3.125-3.117188-8.183594 0-11.304688l14.714844-14.722656 132.367187-132.375c3.125-3.125 8.191406-3.121094 11.316406.003906 3.121094 3.125 3.121094 8.191406-.003906 11.316406l-147.074219 147.070313c-1.5 1.503906-3.535156 2.347656-5.660156 2.347656-2.121094 0-4.15625-.84375-5.660156-2.347656zm376.691406 200.300781-17.976562 17.984375c-8.316407 8.386718-21.511719 9.4375-31.050782 2.472656l-298.398437-216.085938 133.816406-133.808593 216.078125 298.398437c6.964844 9.535156 5.914062 22.726563-2.46875 31.039063zm0 0"/></svg>